<?xml version="1.0" encoding="utf-8"?>
<!-- Generator: Adobe Illustrator 25.2.0, SVG Export Plug-In . SVG Version: 6.00 Build 0)  -->
<svg version="1.1" id="Camada_1" xmlns="http://www.w3.org/2000/svg" xmlns:xlink="http://www.w3.org/1999/xlink" x="0px" y="0px"
	 viewBox="0 0 1920 1080" style="enable-background:new 0 0 1920 1080;" xml:space="preserve">
<style type="text/css">
	.st0{fill:#FFFFFF;}
	.st1{fill:#1E1E1E;}
	.st2{fill:#FFC100;}
</style>
<g>
	<g>
		<g>
			<g>
				<path class="st0" d="M500.1,446.3c0,0,16.1-103.9,39-142.6c0.2-0.4,0.5-0.8,0.7-1.1c16.9-27.4,59.2-8.6,50.5,22.4l-71.7,256.8
					L500.1,446.3z"/>
			</g>
			<g>
				<path class="st1" d="M490.5,447.6l-0.2-1.4l0.2-1.4c0.7-4.3,16.7-106.2,40.2-146l0.8-1.3c10-16.2,29.3-22.2,46.8-14.5
					c17.6,7.7,26.4,26.1,21.2,44.6l-84.2,301.5L490.5,447.6z M547.9,307.6l-0.6,0.9c-20.3,34.3-35.6,125.5-37.6,137.8l12,88
					l59.2-212c3.2-11.3-3.6-18.8-10.4-21.8c-2.3-1-5.1-1.7-7.9-1.7C557.5,298.9,551.9,301.2,547.9,307.6z"/>
			</g>
		</g>
		<g>
			<g>
				<path class="st0" d="M492.8,430.7c0,0-0.9-105.2,15.4-147c0.2-0.4,0.3-0.8,0.5-1.2c12.3-29.7,57-18,53.5,14l-29.2,265
					L492.8,430.7z"/>
			</g>
			<g>
				<path class="st1" d="M483.6,433.5l-0.4-1.3l0-1.4c0-4.4-0.7-107.5,16.1-150.6l0.6-1.5c7.3-17.6,25.3-26.6,43.8-21.9
					c18.7,4.8,30.2,21.5,28.1,40.5l-34.3,311.2L483.6,433.5z M517.6,286.1l-0.4,1.1c-14.5,37.2-14.8,129.7-14.8,142.1l26.1,84.9
					l24.1-218.8c1.3-11.7-6.6-18-13.8-19.8c-1.6-0.4-3.2-0.6-5-0.6C527.8,274.9,521.1,277.8,517.6,286.1z M492.8,430.7L492.8,430.7
					L492.8,430.7z"/>
			</g>
		</g>
		<g>
			<g>
				<path class="st0" d="M474.1,412.8c0,0-24.1-102.4-17.4-146.8c0.1-0.4,0.1-0.9,0.2-1.3c5.4-31.7,51.6-30.2,55.2,1.8l30,264.9
					L474.1,412.8z"/>
			</g>
		</g>
		<g>
			<g>
				<path class="st1" d="M542.1,541c0.4,0,0.7,0,1.1-0.1c5.3-0.6,9.1-5.4,8.5-10.6l-30-264.9c-2.2-19.1-17.1-32.8-36.4-33.3
					c-0.4,0-0.8,0-1.2,0c-18.6,0-33.6,12.6-36.7,31l-0.2,1.4c-6.9,45.8,16.6,146.3,17.6,150.5c1.2,5.2,6.4,8.4,11.6,7.2
					c5.2-1.2,8.4-6.4,7.2-11.6c-0.2-1-23.6-101.1-17.3-143.2l0.2-1.1c1.9-11.4,11.3-15.2,18.4-15c7.4,0.2,16.5,4.6,17.8,16.3
					l30,264.9C533.1,537.3,537.3,541,542.1,541z"/>
			</g>
		</g>
		<g>
			<g>
				<g>
					<g>
						<path class="st2" d="M208.8,582.7c-0.4-0.1-0.9-0.2-1.3-0.3c-8.8-17.3-12.9-37.2-10.6-57.9c6.2-56.4,57-97.1,113.4-90.9
							c49.9,5.5,87.6,45.9,91.3,94.2c0.5,6.3,0.4,12.7-0.3,19.2c-6.2,56.4-57,97.1-113.4,90.9c-27.4-3-51-16.5-67.4-36.1
							C222.3,593.4,216.8,585.3,208.8,582.7z"/>
					</g>
				</g>
				<g>
					<g>
						<path class="st1" d="M286.7,647.4c-61.6-6.8-106.2-62.4-99.4-124c3.3-29.8,18-56.6,41.4-75.4c23.4-18.8,52.7-27.3,82.6-24
							c53.7,5.9,95.7,49.2,99.8,103c0.5,6.9,0.4,14-0.4,21c-3.3,29.8-18,56.6-41.4,75.4c-20.1,16.2-44.6,24.7-70.1,24.7
							C295.1,648.1,290.9,647.9,286.7,647.4z M206.4,525.5c-5.6,51.1,31.4,97.2,82.4,102.8c24.7,2.7,49.1-4.4,68.5-19.9
							c19.4-15.6,31.6-37.8,34.3-62.5c0.6-5.8,0.7-11.7,0.3-17.4l0,0c-3.4-44.6-38.2-80.5-82.7-85.4c-3.4-0.4-6.9-0.6-10.2-0.6
							C252.1,442.5,211.6,477.9,206.4,525.5z"/>
					</g>
				</g>
			</g>
			<g>
				<g>
					<path class="st1" d="M299.2,620.1c17.6,0,34.8-5.5,49.3-16.1c18.2-13.2,30.2-32.8,33.8-55c0.8-5.2,1.2-10.5,1-15.7
						c-0.1-5.3-4.4-9.6-9.9-9.3c-5.3,0.1-9.5,4.6-9.3,9.9c0.1,4-0.2,8.1-0.8,12.2c-2.7,17.2-12,32.3-26.1,42.5
						c-14.1,10.2-31.3,14.3-48.5,11.6c-14.8-2.4-27.9-9.4-37.9-20.5c-3.6-3.9-9.6-4.2-13.6-0.7c-3.9,3.6-4.2,9.7-0.7,13.6
						c12.8,14.1,30.3,23.5,49.1,26.6C290.2,619.7,294.7,620.1,299.2,620.1z"/>
				</g>
			</g>
			<g>
				<g>
					<path class="st1" d="M225.4,558.8c0.6,0,1.2-0.1,1.7-0.2c5.2-1,8.7-6,7.7-11.2c-1.3-7.2-1.4-14.6-0.2-22
						c2.2-14,8.8-26.7,19-36.5c3.8-3.7,3.9-9.8,0.2-13.6c-3.7-3.8-9.8-3.9-13.6-0.2c-13.2,12.8-21.7,29.1-24.6,47.3
						c-1.5,9.5-1.4,19.1,0.3,28.5C216.8,555.5,220.9,558.8,225.4,558.8z"/>
				</g>
			</g>
			<g>
				<g>
					<path class="st1" d="M274.4,474.7c1.1,0,2.1-0.2,3.2-0.5c10.1-3.5,21.1-4.5,31.7-2.8c1.6,0.3,3.1,0.6,4.6,0.9
						c5.1,1.2,10.3-2,11.5-7.2c1.2-5.2-2-10.3-7.2-11.5c-2-0.5-4-0.9-6-1.2c-13.8-2.2-27.9-0.9-41,3.6c-5,1.7-7.7,7.2-5.9,12.2
						C266.7,472.2,270.5,474.7,274.4,474.7z"/>
				</g>
			</g>
			<g>
				<g>
					<g>
						<path class="st1" d="M290.6,494.1l-1.1-11.8c-0.2-1.8,1.1-3.3,2.9-3.5l9-0.8c1.8-0.2,3.3,1.1,3.5,2.9l1.1,11.9
							c0.1,1.6,1.4,2.8,3,2.9c9.1,0.8,18.1,3.7,25.4,8.1c1.3,0.8,1.8,2.5,1.3,3.9l-4.3,11.1c-0.7,1.8-2.9,2.6-4.6,1.6
							c-8.7-5.2-19.9-8.2-27.4-7.5c-6.3,0.6-10,3.3-9.6,7.5c1.3,13.8,43.2,1.5,45.9,30.2c1.1,12.1-6.3,21.4-19.3,25.7
							c-1.5,0.5-2.4,1.8-2.3,3.4l1,11.2c0.2,1.8-1.1,3.3-2.9,3.5l-9,0.8c-1.8,0.2-3.3-1.1-3.5-2.9l-1-10.9c-0.1-1.6-1.5-2.8-3.1-2.9
							c-7.5-0.5-14.7-2.3-20.7-5c-1.5-0.7-2.2-2.5-1.6-4l4.3-11.6c0.6-1.7,2.5-2.6,4.2-1.9c8.4,3.4,18,5.5,24,5
							c5.1-0.5,8.3-2.6,7.9-6.3c-1.2-13.4-43.3-1.8-46-31c-1.2-13.4,7.6-22.4,20.6-26.2C289.7,497.1,290.8,495.7,290.6,494.1z"/>
					</g>
				</g>
			</g>
		</g>
		<g>
			<g>
				<path class="st0" d="M487.5,423.3c-21.5-18.8-48.2-32.2-78-37.4c-9.2-1.6-19.7-2.7-19.7-2.7c-40.1-4.4-54.9,15.5-54.9,15.5
					c-1.5,2.1-7.2,10-6.1,20.5c0.2,2.3,1.4,10.6,8,16.2c6.6,5.6,15.1,5.4,19.6,5.4c26.4-0.3,49.9,2.8,57.1,4
					c22.5,4,37.8,17.3,42.9,21.8c23.5,20.6,34.4,53.6,32.9,83.3c-3.1,62.7-58.2,109-119.7,102.3c-12.9-1.4-25-5.1-36-10.5
					c-13.6-6.7-30.1-0.4-36.1,13.6c-5.5,12.9,0,28,12.6,34.2c13.4,6.7,27.9,11.5,43.3,14.2c96.2,16.8,203.7-34,208.2-131.5
					c1.1-23.4-7.6-71.1-30.1-87L487.5,423.3z"/>
			</g>
		</g>
		<g>
			<g>
				<path class="st1" d="M390,716.5c47.6,0,94.4-14.9,128.1-42c32.8-26.3,51.1-61.5,52.9-101.8c1-21.6-6.2-75.6-34.1-95.3
					c-4.3-3.1-10.3-2-13.4,2.3c-3.1,4.3-2,10.3,2.3,13.4c17.8,12.6,27.2,54.3,26,78.7c-1.6,34.6-17.4,65-45.8,87.7
					c-38.6,31-96.6,44.3-151.1,34.8c-14.1-2.5-27.8-7-40.6-13.4c-8-4-11.5-13.6-8-21.9c1.9-4.4,5.4-7.7,9.8-9.4
					c4.3-1.6,9-1.4,13.1,0.6c12.3,6.1,25.5,9.9,39.3,11.4c32.1,3.5,64.6-6.5,89.2-27.4c24.9-21.3,39.5-51.1,41.1-83.9
					c1.7-35.1-12.2-69.9-36.2-91c-5.5-4.9-22.4-19.6-47.5-24c-9-1.6-32.8-4.5-58.9-4.2c-3.9,0.1-9.5,0.1-13.3-3.1
					c-3.7-3.1-4.5-8.3-4.7-9.8c-0.6-5.8,2-10.7,4.3-13.8c0.4-0.5,12.7-15.4,46.1-11.7c0.2,0,10.4,1.1,19.1,2.6
					c27.2,4.8,52.5,16.9,73.4,35.1c4,3.5,10.1,3.1,13.6-0.9c3.5-4,3.1-10.1-0.9-13.6c-23.5-20.6-52.1-34.3-82.7-39.6
					c-9.4-1.6-20-2.7-20.4-2.8c-45-5-62.9,18.4-63.6,19.4c-6.1,8.3-9,18-8,27.3c0.5,4.2,2.5,14.9,11.4,22.5
					c9.3,7.9,20.4,7.7,25.8,7.6c25.8-0.3,48.7,2.7,55.5,3.9c19.9,3.5,33.7,15.6,38.2,19.6c19.7,17.3,31.1,46.2,29.7,75.6
					c-1.3,27.5-13.6,52.4-34.4,70.2c-20.9,17.8-47.4,26-74.6,23c-11.5-1.3-22.6-4.5-32.8-9.6c-8.9-4.4-19-4.9-28.3-1.4
					c-9.4,3.5-16.9,10.7-20.8,19.9c-7.5,17.6,0.1,38.1,17.1,46.6c14.5,7.2,29.9,12.3,45.9,15.1C364.3,715.4,377.2,716.5,390,716.5z"
					/>
			</g>
		</g>
		<g>
			<g>
				<path class="st0" d="M423.6,697.7c-0.5,11.2-6.4,58.1-6.4,58.1l93.3,11.7l50-184.5c0,0-40.8,12.7-53.8,27
					C493.7,624.3,423.6,697.7,423.6,697.7z"/>
			</g>
		</g>
		<g>
			<g>
				<path class="st1" d="M517.6,778l52.2-192.6c1.4-5.1-1.6-10.4-6.8-11.8c-5.2-1.4-10.4,1.6-11.8,6.8l-47.8,176.4l-75.5-9.5
					c1.8-14.4,4.9-41,5.3-49.4c0.2-5.3-3.9-9.8-9.2-10c-5.5-0.1-9.8,3.9-10,9.2c-0.4,8.6-4.3,41.2-6.3,57.3l-1.2,9.5L517.6,778z"/>
			</g>
		</g>
		<g>
			<g>
				
					<rect x="374.4" y="761.7" transform="matrix(0.994 0.1092 -0.1092 0.994 89.5759 -45.0434)" class="st1" width="163.1" height="67"/>
			</g>
			<g>
				<path class="st1" d="M360.6,828.1l9.4-85.7l181.3,19.9l-9.4,85.7L360.6,828.1z M387,763.6l-5.2,47.5l143.1,15.7l5.2-47.5
					L387,763.6z"/>
			</g>
		</g>
		<g>
			<g>
				<path class="st0" d="M508.6,801c-0.6,5.2-5.2,8.9-10.4,8.3c-5.2-0.6-8.9-5.2-8.3-10.4c0.6-5.2,5.2-8.9,10.4-8.3
					C505.4,791.2,509.1,795.8,508.6,801z"/>
			</g>
			<g>
				<path class="st0" d="M497.1,818.8c-5-0.6-9.6-3-12.7-7c-3.2-4-4.6-8.9-4.1-14c0.6-5,3-9.6,7-12.7c4-3.2,8.9-4.6,14-4.1
					c10.4,1.1,17.9,10.5,16.8,21v0c-1.1,9.7-9.3,16.9-18.9,16.9C498.5,818.9,497.9,818.9,497.1,818.8z M499,799.9l9.6,1.1l-9.3-1.3
					c0,0,0,0,0,0C499.1,799.7,499,799.8,499,799.9z"/>
			</g>
		</g>
		<g>
			<g>
				<path class="st1" d="M277.9,405.7c5.3,0,9.6-4.3,9.6-9.6v-53.5c0-5.3-4.3-9.6-9.6-9.6c-5.3,0-9.6,4.3-9.6,9.6v53.5
					C268.3,401.4,272.6,405.7,277.9,405.7z"/>
			</g>
		</g>
		<g>
			<g>
				<path class="st1" d="M209.9,434.5c1.6,0,3.3-0.4,4.8-1.3c4.6-2.7,6.2-8.5,3.5-13.1l-26.8-46.2c-2.7-4.6-8.5-6.1-13.1-3.5
					c-4.6,2.7-6.2,8.5-3.5,13.1l26.8,46.2C203.4,432.8,206.6,434.5,209.9,434.5z"/>
			</g>
		</g>
		<g>
			<g>
				<path class="st1" d="M163.3,497.7c3.5,0,6.9-1.9,8.6-5.3c2.4-4.7,0.5-10.5-4.2-12.9L120,455.3c-4.7-2.4-10.5-0.5-12.9,4.2
					c-2.4,4.7-0.5,10.5,4.2,12.9l47.7,24.2C160.3,497.4,161.8,497.7,163.3,497.7z"/>
			</g>
		</g>
	</g>
	<g>
		<g>
			<path class="st1" d="M1032.5,439.8c4.2-2.8,8.8-4.2,13.8-4.2c7.1,0,13.6,2.4,19.3,7.2c5.7,4.8,8.6,10.8,8.6,17.9
				c0,4-0.8,7.6-2.3,10.7L995,651.9c-2.5,5.9-6.3,10.4-11.4,13.5c-5.1,3.1-10.8,4.7-17,4.7c-5.9,0-11.4-1.6-16.5-4.7
				c-5.1-3.1-8.9-7.6-11.4-13.5l-55.5-133.3l-53.6,133.3c-2.5,5.9-6.3,10.4-11.4,13.5c-5.1,3.1-10.8,4.7-17,4.7
				c-5.9,0-11.5-1.6-16.8-4.7c-5.3-3.1-9.2-7.6-11.7-13.5l-76.4-180.4c-1.6-4-2.3-7.5-2.3-10.3c0-7.1,3.1-13.3,9.3-18.4
				c6.2-5.1,13.1-7.7,20.5-7.7c5.3,0,10.1,1.4,14.5,4.2c4.3,2.8,7.6,7,9.8,12.6l55,142.2l56.4-140.8c2.5-5.9,6.1-10.3,10.7-13.3
				c4.7-2.9,9.8-4.4,15.4-4.4c5.6,0,10.7,1.5,15.4,4.4c4.7,3,8.2,7.4,10.7,13.3l56.9,141.2l54.5-142.2
				C1025.1,446.8,1028.3,442.6,1032.5,439.8z"/>
			<path class="st1" d="M1280,457.8c15.4,15.7,23.1,39.6,23.1,71.6v113.7c0,8.4-2.5,15-7.5,19.8c-5,4.8-11.8,7.2-20.5,7.2
				c-8.1,0-14.7-2.5-19.8-7.5c-5.1-5-7.7-11.5-7.7-19.6v-10.3c-5.3,12.1-13.6,21.6-24.9,28.4c-11.3,6.8-24.5,10.3-39.4,10.3
				c-15.2,0-29.1-3.1-41.5-9.3c-12.4-6.2-22.2-14.8-29.4-25.6c-7.2-10.9-10.7-23-10.7-36.4c0-16.8,4.3-30,12.8-39.6
				c8.5-9.6,22.4-16.6,41.7-21c19.3-4.3,45.8-6.5,79.7-6.5h11.7v-10.7c0-15.2-3.3-26.3-9.8-33.3c-6.5-7-17.1-10.5-31.7-10.5
				c-9,0-18.2,1.3-27.5,4c-9.3,2.6-20.4,6.5-33.1,11.4c-8.1,4-14,6.1-17.7,6.1c-5.6,0-10.2-2-13.8-6.1c-3.6-4-5.4-9.3-5.4-15.8
				c0-5.3,1.3-9.9,4-13.8c2.6-3.9,7.1-7.5,13.3-11c10.9-5.9,23.8-10.6,38.9-14c15.1-3.4,29.9-5.1,44.5-5.1
				C1241.1,434.2,1264.6,442.1,1280,457.8z M1232.9,613.9c9.8-10.4,14.7-23.8,14.7-40.3v-9.8h-8.4c-20.8,0-37,0.9-48.5,2.8
				c-11.5,1.9-19.7,5.1-24.7,9.8c-5,4.7-7.5,11-7.5,19.1c0,9.9,3.5,18.1,10.5,24.5c7,6.4,15.6,9.6,25.9,9.6
				C1210.5,629.6,1223.2,624.4,1232.9,613.9z"/>
			<path class="st1" d="M1370.5,663.3c-5.4-4.8-8.2-11.7-8.2-20.7V364.3c0-9,2.7-15.8,8.2-20.5c5.4-4.7,12.4-7,20.7-7s15.4,2.3,21,7
				c5.6,4.7,8.4,11.5,8.4,20.5v278.3c0,9-2.8,15.9-8.4,20.7s-12.6,7.2-21,7.2S1375.9,668.2,1370.5,663.3z"/>
			<path class="st1" d="M1488.9,663.3c-5.4-4.8-8.2-11.7-8.2-20.7V364.3c0-9,2.7-15.8,8.2-20.5c5.4-4.7,12.4-7,20.7-7s15.4,2.3,21,7
				c5.6,4.7,8.4,11.5,8.4,20.5v278.3c0,9-2.8,15.9-8.4,20.7s-12.6,7.2-21,7.2S1494.3,668.2,1488.9,663.3z"/>
			<path class="st1" d="M1768.1,439.6c4.2-2.6,8.8-4,13.8-4c7.1,0,13.6,2.4,19.3,7.2c5.7,4.8,8.6,10.8,8.6,17.9
				c0,3.4-0.9,7-2.8,10.7l-127.3,266.6c-5.3,10.6-13.5,15.8-24.7,15.8c-7.2,0-13.4-2.3-18.9-6.8c-5.4-4.5-8.2-10.2-8.2-17
				c0-3.4,0.9-7.3,2.8-11.7l31.7-66.7l-86.7-180.4c-1.6-3.1-2.3-6.7-2.3-10.7c0-7.1,3-13.2,9.1-18.2c6.1-5,13-7.5,20.7-7.5
				c5.3,0,10.1,1.3,14.5,4c4.3,2.6,7.8,6.8,10.3,12.4l65.3,144l64.8-143.6C1760.6,446.4,1763.9,442.2,1768.1,439.6z"/>
		</g>
		<g>
			<path class="st2" d="M851.1,786v30c0,1-0.3,1.8-0.8,2.4c-0.6,0.6-1.3,0.9-2.3,0.9c-1,0-1.8-0.3-2.4-0.9c-0.6-0.6-0.9-1.4-0.9-2.4
				v-29.6c0-5.2-0.9-8.9-2.8-11.2c-1.8-2.3-4.8-3.5-8.8-3.5c-4.6,0-8.3,1.6-11,4.7c-2.7,3.1-4.1,7.3-4.1,12.5V816
				c0,1-0.3,1.8-0.8,2.4c-0.6,0.6-1.3,0.9-2.3,0.9c-1,0-1.8-0.3-2.4-0.9c-0.6-0.6-0.9-1.4-0.9-2.4v-29.6c0-5.2-0.9-8.9-2.8-11.2
				c-1.8-2.3-4.8-3.5-8.8-3.5c-4.6,0-8.3,1.6-11,4.7c-2.7,3.1-4.1,7.3-4.1,12.5V816c0,1-0.3,1.8-0.8,2.4c-0.6,0.6-1.3,0.9-2.3,0.9
				c-1,0-1.8-0.3-2.4-0.9c-0.6-0.6-0.9-1.4-0.9-2.4v-46.5c0-1.1,0.3-1.9,0.9-2.4c0.6-0.6,1.4-0.8,2.4-0.8c1,0,1.8,0.3,2.3,0.8
				c0.5,0.6,0.8,1.3,0.8,2.3v6.4c1.5-3.2,3.6-5.6,6.4-7.3c2.8-1.7,6-2.5,9.7-2.5c8.1,0,13.4,3.4,15.8,10.2c1.5-3.2,3.8-5.7,6.8-7.5
				c3-1.8,6.5-2.7,10.5-2.7C845.4,766,851.1,772.7,851.1,786z"/>
			<path class="st2" d="M902.2,770.9c3.1,3.3,4.6,8.2,4.6,14.8v30.3c0,1-0.3,1.8-0.8,2.4c-0.6,0.6-1.3,0.9-2.3,0.9
				c-1,0-1.8-0.3-2.3-0.9c-0.6-0.6-0.8-1.4-0.8-2.4v-6.4c-1.5,3.2-3.6,5.6-6.5,7.4c-2.8,1.7-6.1,2.6-9.8,2.6c-3.3,0-6.4-0.7-9.1-2
				c-2.7-1.3-4.9-3.2-6.5-5.5c-1.6-2.3-2.4-5-2.4-7.9c-0.1-3.9,0.9-6.9,2.9-9.1c2-2.2,5.3-3.7,9.9-4.6c4.6-0.9,11-1.4,19.3-1.4h2.2
				v-3.9c0-4.7-1-8.1-2.9-10.2c-1.9-2.2-4.9-3.2-9-3.2c-5.2,0-10.2,1.4-15,4.1c-0.2,0.1-0.8,0.5-1.6,1.1c-0.9,0.6-1.6,0.9-2.3,0.9
				c-0.7,0-1.3-0.3-1.8-0.8c-0.5-0.5-0.7-1.2-0.7-2c0-1.6,1.2-3.1,3.7-4.6c2.5-1.4,5.2-2.5,8.3-3.3c3-0.8,6.1-1.2,9-1.2
				C894.5,766,899.1,767.7,902.2,770.9z M896.1,809.2c2.9-3.1,4.4-7.1,4.4-11.9v-3.5h-2c-6.8,0-12,0.3-15.6,0.8
				c-3.6,0.6-6.2,1.5-7.6,2.9c-1.5,1.4-2.2,3.4-2.2,6c0,3,1.1,5.4,3.4,7.4c2.3,1.9,5.1,2.9,8.4,2.9
				C889.4,813.9,893.1,812.4,896.1,809.2z"/>
			<path class="st2" d="M964.2,816.4c0,0.8-0.3,1.5-0.8,2.1c-0.6,0.6-1.2,0.9-2,0.9c-0.7,0-1.5-0.3-2.2-1l-28.9-24.6V816
				c0,1.1-0.3,1.9-0.9,2.4c-0.6,0.6-1.4,0.8-2.3,0.8c-1,0-1.8-0.3-2.4-0.8c-0.6-0.6-0.9-1.4-0.9-2.4v-69.3c0-1.1,0.3-1.9,0.9-2.4
				c0.6-0.6,1.4-0.8,2.4-0.8c0.9,0,1.7,0.3,2.3,0.8c0.6,0.6,0.9,1.4,0.9,2.4v44.4l26.4-23.8c0.8-0.6,1.5-1,2.2-1
				c0.8,0,1.6,0.3,2.2,0.9c0.6,0.6,0.9,1.3,0.9,2.2c0,1.1-0.4,1.9-1.3,2.5l-22.9,20.3l25.1,21.4
				C963.7,814.6,964.2,815.4,964.2,816.4z"/>
			<path class="st2" d="M974.9,753c-0.9-0.8-1.3-1.9-1.3-3.3c0-1.4,0.4-2.5,1.3-3.4c0.9-0.8,2-1.3,3.5-1.3c1.4,0,2.6,0.4,3.5,1.3
				c0.9,0.8,1.3,2,1.3,3.4c0,1.3-0.4,2.4-1.3,3.3c-0.9,0.8-2,1.3-3.5,1.3C977,754.2,975.8,753.8,974.9,753z M976,818.5
				c-0.6-0.6-0.9-1.4-0.9-2.4v-46.5c0-1.1,0.3-1.9,0.9-2.4c0.6-0.6,1.4-0.8,2.4-0.8s1.8,0.3,2.3,0.8c0.6,0.6,0.8,1.4,0.8,2.4V816
				c0,1.1-0.3,1.9-0.8,2.4c-0.6,0.6-1.3,0.8-2.3,0.8S976.6,819,976,818.5z"/>
			<path class="st2" d="M1041.3,786v30c0,1-0.3,1.8-0.8,2.4c-0.6,0.6-1.3,0.9-2.3,0.9c-1,0-1.8-0.3-2.4-0.9
				c-0.6-0.6-0.9-1.4-0.9-2.4v-29.6c0-5.1-1-8.8-3.1-11.1c-2.1-2.3-5.3-3.5-9.8-3.5c-5.1,0-9.2,1.6-12.3,4.7
				c-3.1,3.1-4.6,7.3-4.6,12.5V816c0,1-0.3,1.8-0.8,2.4c-0.6,0.6-1.3,0.9-2.3,0.9s-1.8-0.3-2.4-0.9c-0.6-0.6-0.9-1.4-0.9-2.4v-46.5
				c0-1,0.3-1.8,0.9-2.4c0.6-0.6,1.4-0.9,2.4-0.9c0.9,0,1.7,0.3,2.2,0.8c0.6,0.6,0.8,1.3,0.8,2.3v6.7c1.6-3.3,4-5.7,7.1-7.5
				c3.1-1.7,6.6-2.6,10.7-2.6C1035.1,766,1041.3,772.7,1041.3,786z"/>
			<path class="st2" d="M1101.6,767.1c0.6,0.6,0.9,1.4,0.9,2.4v46.3c0,7.5-1.9,13.2-5.6,17c-3.7,3.9-9.2,5.8-16.5,5.8
				c-3.8,0-7.2-0.4-10.2-1.1c-3-0.7-5.8-1.9-8.4-3.5c-2.5-1.6-3.8-3.1-3.8-4.6c0-0.8,0.2-1.4,0.7-1.9c0.5-0.5,1-0.7,1.8-0.7
				c0.4,0,1,0.2,1.8,0.6c0.7,0.4,1.3,0.7,1.5,0.8c2.4,1.3,4.9,2.5,7.4,3.3c2.5,0.9,5.7,1.3,9.4,1.3c5.2,0,9.1-1.4,11.7-4.1
				c2.6-2.8,3.9-6.9,3.9-12.3v-10.1c-1.5,3.5-3.8,6.1-6.8,8c-3.1,1.9-6.8,2.8-11.2,2.8c-4.5,0-8.5-1.1-12-3.2
				c-3.5-2.1-6.2-5.1-8.2-9c-1.9-3.9-2.9-8.4-2.9-13.4c0-5,1-9.5,2.9-13.4c1.9-3.9,4.7-6.9,8.2-9c3.5-2.1,7.5-3.2,12-3.2
				c4.3,0,8,0.9,11,2.7c3,1.8,5.3,4.4,6.9,7.9v-7.1c0-1,0.3-1.8,0.8-2.4c0.6-0.6,1.3-0.9,2.3-0.9
				C1100.2,766.2,1101,766.5,1101.6,767.1z M1091.5,806.2c3-3.5,4.5-8.4,4.5-14.5c0-6.2-1.5-11-4.6-14.6c-3-3.6-7.2-5.4-12.5-5.4
				c-5.4,0-9.6,1.8-12.6,5.3c-3,3.5-4.6,8.4-4.6,14.7c0,6.2,1.5,11.1,4.6,14.6c3,3.5,7.3,5.3,12.6,5.3
				C1084.3,811.5,1088.5,809.7,1091.5,806.2z"/>
			<path class="st2" d="M1147.1,818.5c-0.6-0.6-0.9-1.4-0.9-2.4v-69.3c0-1.1,0.3-1.9,0.9-2.4c0.6-0.6,1.4-0.8,2.4-0.8
				c0.9,0,1.7,0.3,2.3,0.8c0.6,0.6,0.9,1.4,0.9,2.4V816c0,1.1-0.3,1.9-0.9,2.4c-0.6,0.6-1.4,0.8-2.3,0.8
				C1148.5,819.3,1147.7,819,1147.1,818.5z"/>
			<path class="st2" d="M1169.6,753c-0.9-0.8-1.3-1.9-1.3-3.3c0-1.4,0.4-2.5,1.3-3.4c0.9-0.8,2-1.3,3.5-1.3c1.4,0,2.6,0.4,3.5,1.3
				c0.9,0.8,1.3,2,1.3,3.4c0,1.3-0.4,2.4-1.3,3.3c-0.9,0.8-2,1.3-3.5,1.3C1171.7,754.2,1170.5,753.8,1169.6,753z M1170.7,818.5
				c-0.6-0.6-0.9-1.4-0.9-2.4v-46.5c0-1.1,0.3-1.9,0.9-2.4c0.6-0.6,1.4-0.8,2.4-0.8s1.8,0.3,2.3,0.8c0.6,0.6,0.8,1.4,0.8,2.4V816
				c0,1.1-0.3,1.9-0.8,2.4c-0.6,0.6-1.3,0.8-2.3,0.8S1171.3,819,1170.7,818.5z"/>
			<path class="st2" d="M1205.5,753.1c-2.1,2.2-3.1,5.6-3.1,10.2v3.9h12.8c0.9,0,1.6,0.2,2.1,0.7c0.5,0.5,0.7,1.1,0.7,1.9
				c0,0.8-0.2,1.4-0.7,1.9c-0.5,0.5-1.2,0.7-2.1,0.7h-12.8V816c0,1-0.3,1.8-1,2.4c-0.6,0.6-1.4,0.9-2.3,0.9c-1,0-1.8-0.3-2.3-0.8
				c-0.6-0.6-0.8-1.4-0.8-2.4v-43.5h-8.1c-0.8,0-1.5-0.2-2-0.7c-0.5-0.5-0.7-1.1-0.7-1.9c0-0.8,0.2-1.4,0.7-1.9
				c0.5-0.5,1.2-0.7,2-0.7h8.1v-2.7c0-6.2,1.5-11.1,4.5-14.7c3-3.5,7.4-5.5,13.1-5.9l2.8-0.2c2.8-0.2,4.1,0.6,4.1,2.4
				c0,1.7-1,2.7-3.1,2.9l-2.8,0.2C1210.6,749.6,1207.5,750.9,1205.5,753.1z"/>
			<path class="st2" d="M1267.4,808.6c0.5,0.5,0.7,1.2,0.7,1.9c0,1.6-1.2,3.1-3.6,4.6c-5.1,3-10.5,4.6-16.1,4.6
				c-7.9,0-14.1-2.4-18.6-7.1c-4.5-4.7-6.8-11.3-6.8-19.5c0-5.3,1-10,3-14.1c2-4.1,4.8-7.2,8.5-9.4c3.6-2.2,7.8-3.3,12.6-3.3
				c6.7,0,11.9,2.1,15.8,6.4c3.9,4.3,5.8,10.2,5.8,17.7c0,1.3-0.3,2.2-0.8,2.8c-0.6,0.6-1.5,0.9-2.8,0.9h-35.4
				c0.2,6.5,1.9,11.5,5.1,14.9c3.2,3.4,7.7,5.1,13.5,5.1c3,0,5.6-0.4,7.6-1.2c2.1-0.8,4.2-1.9,6.6-3.2c1.6-1.1,2.7-1.6,3.3-1.6
				C1266.4,807.8,1267,808,1267.4,808.6z M1235.2,776c-3,3.1-4.7,7.5-5.3,13.1h32.8c-0.1-5.7-1.6-10-4.2-13.1
				c-2.7-3.1-6.5-4.6-11.4-4.6C1242.1,771.3,1238.2,772.9,1235.2,776z"/>
			<path class="st2" d="M1350,808.6c0.5,0.5,0.7,1.2,0.7,1.9c0,1.6-1.2,3.1-3.6,4.6c-5.1,3-10.5,4.6-16.1,4.6
				c-7.9,0-14.1-2.4-18.6-7.1c-4.5-4.7-6.8-11.3-6.8-19.5c0-5.3,1-10,3-14.1c2-4.1,4.8-7.2,8.5-9.4c3.6-2.2,7.8-3.3,12.6-3.3
				c6.7,0,11.9,2.1,15.8,6.4c3.9,4.3,5.8,10.2,5.8,17.7c0,1.3-0.3,2.2-0.8,2.8c-0.6,0.6-1.5,0.9-2.8,0.9h-35.4
				c0.2,6.5,1.9,11.5,5.1,14.9c3.2,3.4,7.7,5.1,13.5,5.1c3,0,5.6-0.4,7.6-1.2c2.1-0.8,4.2-1.9,6.6-3.2c1.6-1.1,2.7-1.6,3.3-1.6
				C1349,807.8,1349.6,808,1350,808.6z M1317.8,776c-3,3.1-4.7,7.5-5.3,13.1h32.8c-0.1-5.7-1.6-10-4.2-13.1
				c-2.7-3.1-6.5-4.6-11.4-4.6C1324.7,771.3,1320.8,772.9,1317.8,776z"/>
			<path class="st2" d="M1399.1,770.9c3.1,3.3,4.6,8.2,4.6,14.8v30.3c0,1-0.3,1.8-0.8,2.4c-0.6,0.6-1.3,0.9-2.3,0.9
				c-1,0-1.8-0.3-2.3-0.9c-0.6-0.6-0.8-1.4-0.8-2.4v-6.4c-1.5,3.2-3.6,5.6-6.5,7.4c-2.8,1.7-6.1,2.6-9.8,2.6c-3.3,0-6.4-0.7-9.1-2
				c-2.7-1.3-4.9-3.2-6.5-5.5c-1.6-2.3-2.4-5-2.4-7.9c-0.1-3.9,0.9-6.9,2.9-9.1c2-2.2,5.3-3.7,9.9-4.6c4.6-0.9,11-1.4,19.3-1.4h2.2
				v-3.9c0-4.7-1-8.1-2.9-10.2c-1.9-2.2-4.9-3.2-9-3.2c-5.2,0-10.2,1.4-15,4.1c-0.2,0.1-0.8,0.5-1.6,1.1c-0.9,0.6-1.6,0.9-2.3,0.9
				c-0.7,0-1.3-0.3-1.8-0.8c-0.5-0.5-0.7-1.2-0.7-2c0-1.6,1.2-3.1,3.7-4.6c2.5-1.4,5.2-2.5,8.3-3.3c3-0.8,6.1-1.2,9-1.2
				C1391.3,766,1396,767.7,1399.1,770.9z M1392.9,809.2c2.9-3.1,4.4-7.1,4.4-11.9v-3.5h-2c-6.8,0-12,0.3-15.6,0.8
				c-3.6,0.6-6.2,1.5-7.6,2.9c-1.5,1.4-2.2,3.4-2.2,6c0,3,1.1,5.4,3.4,7.4c2.3,1.9,5.1,2.9,8.4,2.9
				C1386.2,813.9,1390,812.4,1392.9,809.2z"/>
			<path class="st2" d="M1428.5,818.3c-2.9-0.8-5.4-1.9-7.6-3.3c-1.3-0.9-2.3-1.7-2.8-2.4c-0.5-0.7-0.8-1.4-0.8-2.3
				c0-0.7,0.2-1.3,0.7-1.8c0.5-0.5,1-0.7,1.6-0.7c0.6,0,1.7,0.5,3.3,1.6c2.1,1.3,4.2,2.4,6.3,3.3c2.2,0.8,4.9,1.3,8.1,1.3
				c4.2,0,7.4-0.8,9.8-2.3c2.3-1.5,3.5-3.7,3.5-6.5c0-1.7-0.4-3.1-1.3-4.2c-0.8-1.1-2.3-2.1-4.2-2.9c-2-0.8-4.8-1.6-8.5-2.4
				c-6.3-1.4-10.8-3.2-13.4-5.5s-4-5.2-4-9c0-4.5,1.8-8.2,5.3-11c3.5-2.8,8.1-4.2,13.8-4.2c2.8,0,5.4,0.4,7.9,1.1
				c2.5,0.7,4.7,1.7,6.5,3.1c2.5,1.7,3.7,3.4,3.7,5c0,0.7-0.2,1.3-0.7,1.9c-0.5,0.5-1,0.8-1.6,0.8c-0.7,0-1.8-0.6-3.3-1.7
				c-1.9-1.3-3.8-2.4-5.7-3.2c-1.9-0.8-4.3-1.2-7.2-1.2c-3.7,0-6.6,0.8-8.8,2.5c-2.2,1.7-3.3,3.9-3.3,6.7c0,1.6,0.4,3,1.1,4
				c0.7,1.1,2,2,3.8,2.8c1.8,0.8,4.4,1.6,7.8,2.4c4.9,1.1,8.6,2.3,11.3,3.6c2.6,1.3,4.5,2.8,5.6,4.6c1.1,1.8,1.7,4,1.7,6.8
				c0,4.3-1.8,7.8-5.5,10.5c-3.6,2.7-8.5,4-14.5,4C1434.3,819.5,1431.3,819.1,1428.5,818.3z"/>
			<path class="st2" d="M1471.2,753c-0.9-0.8-1.3-1.9-1.3-3.3c0-1.4,0.4-2.5,1.3-3.4c0.9-0.8,2-1.3,3.5-1.3c1.4,0,2.6,0.4,3.5,1.3
				c0.9,0.8,1.3,2,1.3,3.4c0,1.3-0.4,2.4-1.3,3.3c-0.9,0.8-2,1.3-3.5,1.3C1473.2,754.2,1472,753.8,1471.2,753z M1472.2,818.5
				c-0.6-0.6-0.9-1.4-0.9-2.4v-46.5c0-1.1,0.3-1.9,0.9-2.4c0.6-0.6,1.4-0.8,2.4-0.8s1.8,0.3,2.3,0.8c0.6,0.6,0.8,1.4,0.8,2.4V816
				c0,1.1-0.3,1.9-0.8,2.4c-0.6,0.6-1.3,0.8-2.3,0.8S1472.8,819,1472.2,818.5z"/>
			<path class="st2" d="M1536,808.6c0.5,0.5,0.7,1.2,0.7,1.9c0,1.6-1.2,3.1-3.6,4.6c-5.1,3-10.5,4.6-16.1,4.6
				c-7.9,0-14.1-2.4-18.6-7.1c-4.5-4.7-6.8-11.3-6.8-19.5c0-5.3,1-10,3-14.1c2-4.1,4.8-7.2,8.5-9.4c3.6-2.2,7.8-3.3,12.6-3.3
				c6.7,0,11.9,2.1,15.8,6.4c3.9,4.3,5.8,10.2,5.8,17.7c0,1.3-0.3,2.2-0.8,2.8c-0.6,0.6-1.5,0.9-2.8,0.9h-35.4
				c0.2,6.5,1.9,11.5,5.1,14.9c3.2,3.4,7.7,5.1,13.5,5.1c3,0,5.6-0.4,7.6-1.2c2.1-0.8,4.2-1.9,6.6-3.2c1.6-1.1,2.7-1.6,3.3-1.6
				C1535,807.8,1535.6,808,1536,808.6z M1503.8,776c-3,3.1-4.7,7.5-5.3,13.1h32.8c-0.1-5.7-1.6-10-4.2-13.1
				c-2.7-3.1-6.5-4.6-11.4-4.6C1510.7,771.3,1506.8,772.9,1503.8,776z"/>
			<path class="st2" d="M1577.6,766.8c0.6,0.4,0.8,1.1,0.8,2.1c0,1.8-1.1,2.8-3.2,3l-3.2,0.3c-5,0.5-8.8,2.3-11.2,5.4
				c-2.4,3.1-3.7,6.8-3.7,10.9V816c0,1.1-0.3,1.9-0.8,2.4c-0.6,0.6-1.3,0.8-2.3,0.8s-1.8-0.3-2.4-0.8c-0.6-0.6-0.9-1.4-0.9-2.4
				v-46.5c0-1.1,0.3-1.9,0.9-2.4c0.6-0.6,1.4-0.8,2.4-0.8c0.9,0,1.7,0.3,2.2,0.8c0.6,0.6,0.8,1.3,0.8,2.3v6.9
				c2.9-6.1,8.3-9.4,16.1-10l1.5-0.1C1576.1,766.2,1577,766.4,1577.6,766.8z"/>
		</g>
	</g>
</g>
</svg>
